<?xml version="1.0" encoding="UTF-8"?>
<svg version="1.1" viewBox="0 0 2048 1534" width="1280" height="1280" xmlns="http://www.w3.org/2000/svg">
<path transform="translate(172,663)" d="m0 0 5 1 11 8 4 6 2 6v11l-4 9-5 6-10 5-9 4-1 3-1 15v13l2 7 6 4 4 5-1 6-8 5-2 8-1 44 8-4 9-9 8-11 4-4-1 9-5 14-6 11-7 9-7 7-13 8-19 5-9 1h-9l-20-4-14-7-13-11-8-11-8-15-4-14-1-5v-16l4-16 5-12 8-12 6-7 14-11 10-6 11-5h3l-1 3-11 8-8 8-2 5 9-1 17-7 21-10 3-1v79l-6 5-15 7-12 5h-6l2-7 1-49 1-17-16 5-6 8-2 9v18l3 14 8 16 11 11v2l4 2 8 5 12 4h20l10-4 3-3 1-5v-39l-3-5-9-7-2-3 1-5 5-5 6-4 2-6 1-30-10-1-17-5-17-4-9-4-22-6h-11l-5 5-2 4-2 9-4-1-5-8-1-13 3-8 8-9 8-5 11-3h16l24 5 37 11h7l5-4 2-4-1-6z" fill="#060606"/>
<path transform="translate(927,680)" d="m0 0h11l14 7 5 6 1 4 1 43 1 116 2 2-18-2-9 2-7 3-7 7-2 4 1 8 5 5 3 2h14l60-9 14-1 9 2 9 7 6 9 2 4v10l-5 10-7 8-8 5-1-3-1-14-1-5-2-1-13 1-35 6-24 3h-14l-8-2-6-4-7-8-3-9-1-6v-8l5-10 9-9 6-5 2-4-1-61-1-10-9 2-5 5-4 7-4-1-5-10v-8l3-8 4-5 12-6 9-1-1-56-1-4-16-1-3-1 7-8 11-7z" fill="#0B0B0B"/>
<path transform="translate(1013,681)" d="m0 0 5 1 8 7 5 4 8 5 1 6v143l-2 8-6 8-8 4-7 1h-13l-16-3-7-4 1-37v-51l-1-12 1-5v-51l2-7h8l9-6 8-7zm-26 20-2 2v55l1 3 9 1 10-1v-45l-2-7-5-4-8-4zm9 63-10 2v12l7 1 12-2v-13zm3 17-13 2-2 9v59l1 10 5 2 8-1 5-3 3-9 1-7v-58l-2-4z" fill="#030303"/>
<path transform="translate(1116,738)" d="m0 0 5 1 9 7 11 10 11 9 2 6v59l-2 6-11 6-13 8-16 8-7 4-6 1-8-5-3-2v-2l-4-2-8-7-12-3 1-3h2v-55l1-16 5-6 26-15zm-17 20-3 2v54l2 12 5 6 8 7 8 6 6 2v-22l-1-45-3-7-13-12-4-3z" fill="#050505"/>
<path transform="translate(2e3 737)" d="m0 0h4l-3 9-8 19-7 9 1 6 4 5 8 7 4 5 1 3v33l-4 7-9 6-17 9-8 7-5 2-8-1-9-6-9-1-2 6 1 6 2 6-4 1-5-4-7-9-2-4v-9l4-10 8-10 7-7 4 1 1 3 14 3 9 6 8 4h2v-17l-3-15-4-6h-8l-9 9-4 5-6 1-5-6-5-5-5-4-3-6v-12l-1-14 5-5 6-5 13-8 12-7 9-6 5 2 9 8 5 1 8-6zm-48 23-3 3 1 19 3 7 6 5 5-2 8-6 7-8 2-3v-5l-4-2h-11l-6-3h-2l-2-4z" fill="#0A0A0A"/>
<path transform="translate(479,676)" d="m0 0h14l8 3 6 5 10 15 15 28 14 26 7 12 8 16 5 8 8 7 1 2 1 52v14h-4l-8-11-12-22-17-32-32-56-9-14-6-7-8-18-4-5-6-1-9 4-3-1 1-6 6-10 7-6z" fill="#080808"/>
<path transform="translate(1471,718)" d="m0 0 2 1-9 10-6 8-2 6 8 1 4 1-13 6h-2l-3 11-1 4v18l5 17 5 10 6 7 3 8 11 9 11 5 11 2h9l10-2 14-6 10-7 7-6 7-10 4-6h2l-2 11-6 16-6 9-11 12-10 7-13 5-16 3h-13l-14-3-16-7-11-8-10-10-7-11-6-13-3-16v-16l3-14 5-12 7-11 12-12 13-10 8-6z" fill="#080808"/>
<path transform="translate(172,663)" d="m0 0 5 1 11 8 4 6 2 6v11l-4 9-5 6-10 5-9 4-1 3-1 15v13l2 7 6 4 4 5-1 6-8 5-2 8-1 44-9 3 3-4 1-5v-39l-3-5-9-7-2-3 1-5 5-5 6-4 2-6 1-30-10-1-17-5-17-4-9-4-22-6h-11l-5 5-2 4-2 9-4-1-5-8-1-13 3-8 8-9 8-5 11-3h16l24 5 37 11h7l5-4 2-4-1-6z" fill="#090909"/>
<path transform="translate(240,675)" d="m0 0 2 1v18l2 21 1 38v83l6 2 4 4-4 3-8 4-6 7-4 2h-7l-8-7-10-8 1-4 4-2 1-9v-59l-1-64-2-5 1-4 11-7 9-7z" fill="#030303"/>
<path transform="translate(1295,674)" d="m0 0h3l1 121v37l1 3 11 6-4 6-9 10-6 4h-10l-7-8-9-7 1-4 4-4 1-5-2-124-2-5-4-3 1-5 18-13z" fill="#060606"/>
<path transform="translate(379,738)" d="m0 0 4 1 5 8 10 18 5 8 1 5-11 9-12 10-14 9-8 5-1 2v6l9 11 7 6 8 5-1 4-8 7-5 5-5 4-5-1-14-11-9-8-8-5 1-24 1-45 5-5 24-12zm-21 21-1 5v40l3 3 16-10 5-6-8-17-7-10-6-5z" fill="#080808"/>
<path transform="translate(1873,741)" d="m0 0h5l4 5 12 22 6 9-1 4-9 8-14 11-16 11-8 7 1 6 15 16 9 7v3l-10 7-9 7-5 1-18-18-10-6v-66l4-8 18-10 5-3 19-12zm-21 21 1 13 1 31 4 2 6-3 10-8-1-7-10-21-6-6z" fill="#0A0A0A"/>
<path transform="translate(928,854)" d="m0 0 1 3 8-1-2 2-7 3-7 7-2 4 1 8 5 5 3 2h14l60-9 14-1 9 2 9 7 6 9 2 4v10l-5 10-7 8-8 5-1-3-1-14-1-5-2-1-13 1-35 6-24 3h-14l-8-2-6-4-7-8-3-9-1-6v-8l5-10 9-9 6-5z" fill="#070707"/>
<path transform="translate(653,738)" d="m0 0 3 1 12 19 8 16 1 5-11 10-12 8-4 2 4-6-2-6-11-21-4-6-5-2 1 49h5l-5 6-1 7 3 6 8 8 7 5 3 4-1 5-8 7-4 5-7 1-7-4-12-12-8-6-4-2 1-8v-29l-1-11v-20l3-3 26-15z" fill="#0A0A0A"/>
<path transform="translate(1196,739)" d="m0 0 4 2 10 13 3 3 7-2 10-11 5-2 21 2 3 3-1 6-7 9-9 7-6 1-15-3h-5v62l2 7 10 4 1 5-9 11-7 6-8-1-8-7-11-8-5-2 2-5 2-3v-63l-1-6-7-2-2-2 1-6 6-7 8-7z" fill="#050505"/>
<path transform="translate(1547,668)" d="m0 0 4 1 8 6 5 8 1 4v13l-6 9-9 8-7 3h-11l-43-10-25-6-6-1h-14l-4 4-4 14h-4l-5-10-1-3v-9l7-14 8-7 11-6 10-1 14 2 41 12 11 2h16l4-1v-10z" fill="#050505"/>
<path transform="translate(701,712)" d="m0 0h3v7l-1 9 2 5 11 9 12 9 4 9 1 10 1 59 3 7 8 5 6 4-1 4-11 9-5 4-6-1-24-18-1-15v-49l-2-9-9-11-6-8-5-9v-7l11-15z" fill="#060606"/>
<path transform="translate(273,736)" d="m0 0 5 1 12 13 10 8 1 1v65l-1 23-2 11-5 10-8 10-10 6-15 6-8 1 4-5 8-7 4-8 2-12 1-15v-68l-5-10-11-8-3-3 4-4 8-6 7-8z" fill="#060606"/>
<path transform="translate(769,739)" d="m0 0h5l10 8 9 6-1 5-4 8-1 14v46l2 10 4 2 10 7 9 4-2 2-7 4-9 6-8 1-9-6-10-8-8-4-2-3 1-16v-52l-2-7-5-7 2-5 10-8z" fill="#080808"/>
<path transform="translate(1711,742)" d="m0 0 4 1 11 12 8 5 3 4 1 65 2 9 5 2-1 4-11 13-7 5-7-1-10-11-7-8 5-5v-56l-2-7-12-11-1-4 3-6z" fill="#070707"/>
<path transform="translate(1764,742)" d="m0 0 6 2 9 11 8 6 1 2 1 65 2 5 10 7 1 2-7 8-9 10-5 3-6-1-16-17-3-3 2-4 3-1v-57l-4-8-9-9-1-7 4-5 6-4 5-4z" fill="#050505"/>
<path transform="translate(1659,743)" d="m0 0 6 1 11 11 7 5 2 9-1 57 1 10 6 4v4l-5 5-9 12-1 1-7-1-9-10-7-7v-5l3-5 1-35-1-22-4-7-10-8 1-5 5-6 6-4z" fill="#0A0A0A"/>
<path transform="translate(1591,742)" d="m0 0 5 2 12 12 6 4 1 3v59l2 11 7 8 4 5-6 7-5 5-4 3h-5l-13-14-8-7v-17l-1-49-3-5v-2l-5-2-4-7 4-6 8-5z" fill="#0B0B0B"/>
<path transform="translate(136,718)" d="m0 0h2v79l-6 5-15 7-12 5h-6l2-7 1-49 1-17-8 2 1-3-4 1v-3l15-6 24-11z" fill="#040404"/>
<path transform="translate(829,739)" d="m0 0 5 1 9 8 9 5 1 4-8 7-1 18v45l-3 5-10 7-13 8-3-1v-72l-1-7-6-7 1-4 6-5 7-6 5-5z" fill="#070707"/>
<path transform="translate(1319,767)" d="m0 0h2l7 11 13 18 12 17 11 16 9 13-6 7-5 5h-2l-2 4-4 4-5 1-5-6-7-12-17-26-11-18-8-9-1-4 4-4 7-4 5-10z" fill="#080808"/>
<path transform="translate(485,819)" d="m0 0 4 1 16 8 12 7 5 3-1 5-12 12-6 7-5 1-10-6-7-3-9 1-5 4h-2l-2 4-1 5 3 6 7 7v4l-6-1-10-6-5-5-3-4-3-12v-7l5-12 7-8 10-6z" fill="#090909"/>
<path transform="translate(1503,727)" d="m0 0h3l1 68-3 5-22 12-8 4-3-1 4-8-1-62-3-2 8-5 16-6z" fill="#0D0D0D"/>
<path transform="translate(604,678)" d="m0 0 4 1v6l-6 12-7 9-5 4-13 3-2 8-2 37h-1l-1-45-17-5-8-5 2-6 18-18 9 3 4 3 4 1h11l8-6z" fill="#050505"/>
<path transform="translate(1339,739)" d="m0 0 4 1 9 5 7-1 11-3 3 1-6 11-9 12-6 2h-14l-16-1 1-5 7-11 8-10z" fill="#111"/>
<path transform="translate(164,720)" d="m0 0 1 2-1 15v13l2 7 6 4 4 5-1 6-8 5-2 8-1 44-9 3 3-4 1-5v-39l-3-5-9-7-2-3 1-5 5-5 6-4 2-6 1-21 3-7z" fill="#0A0A0A"/>
<path transform="translate(481,744)" d="m0 0h2l1 3v10l2 13-4 3-10 3-3 3-3 7-4 1-6-12-2-5 1-9 7-9 9-5 9-2z" fill="#191919"/>
<path transform="translate(1591,694)" d="m0 0 8 3 11 9v4l-7 8-8 9-3 1-6-4-9-9-1-5 12-14z" fill="#0F0F0F"/>
<path transform="translate(1530,761)" d="m0 0h8l6 4 4 4-1 4-5 5-4 3h-8l-7-5-3-4 1-5z" fill="#202020"/>
<path transform="translate(984,780)" d="m0 0 3 3-2 9v59l1 10 8 1 8-3 2-1-1 4-3 3h-2l-1 2-9-2-7-4 1-37v-35z" fill="#FEFEFE"/>
<path transform="translate(164,782)" d="m0 0 1 3-1 44-9 3 3-4 1-5 1-39h4z" fill="#CFCFCF"/>
<path transform="translate(997,695)" d="m0 0 2 1-3 4-2 4-4-2-4 1-1 55-2-3-1-50 2-7h8z" fill="#FEFEFE"/>
<path transform="translate(136,718)" d="m0 0h2v79l-3 2v-10l1-14z" fill="#FEFEFE"/>
<path transform="translate(983,755)" d="m0 0 1 3h2v3h11l2 3-13 2v12l2 1-4-1-2-4-1-13z" fill="#616161"/>
<path transform="translate(330,765)" d="m0 0 2 1-1 2v66l-4 2 1-24 1-45z" fill="#FEFEFE"/>
<path transform="translate(1503,727)" d="m0 0h3l1 68-2 3-1-68-6 1 3-3z" fill="#FBFBFB"/>
<path transform="translate(1562,805)" d="m0 0h2l-2 11-3 9h-1l-1-5-4 2h-3l8-11z" fill="#ECECEC"/>
<path transform="translate(164,720)" d="m0 0 1 2-2 22-3 8-1-3 1-21 3-7z" fill="#ECECEC"/>
<path transform="translate(928,854)" d="m0 0 1 3 8-1-2 2-7 3-7 7-2 4h-2l-2-4 11-10z" fill="#AFAFAF"/>
<path transform="translate(572,716)" d="m0 0h3l-2 42h-1z" fill="#FEFEFE"/>
<path transform="translate(384,792)" d="m0 0 2 1-15 11-8 4 2-5 12-8 4-2z" fill="#FAFAFA"/>
<path transform="translate(63,703)" d="m0 0h2l1 12-1 2-4-1-2-2 2-10z" fill="#FEFEFE"/>
<path transform="translate(1033,695)" d="m0 0 5 2 2 3v34h-1l-2-28-2-8z" fill="#FEFEFE"/>
<path transform="translate(461,876)" d="m0 0 9 3 2 2v4l-6-1-7-4z" fill="#E0E0E0"/>
<path transform="translate(1917,862)" d="m0 0 4 2 5 4 5 2 1 4-4 1-5-4-6-7z" fill="#FEFEFE"/>
<path transform="translate(2e3 737)" d="m0 0h4l-3 9-3 7-2-4 1-9z" fill="#ECECEC"/>
<path transform="translate(107,713)" d="m0 0h3l-1 3-11 8-2-4v-2z" fill="#A1A1A1"/>
<path transform="translate(192,801)" d="m0 0h1l-1 9-1 2-9 4 2-5z" fill="#FEFEFE"/>
<path transform="translate(1610,758)" d="m0 0 4 2 1 3v42h-1l-1-39z" fill="#FEFEFE"/>
<path transform="translate(1866,802)" d="m0 0h6l-5 4-9 6-1-4 8-5z" fill="#FEFEFE"/>
<path transform="translate(1927,760)" d="m0 0 2 1-7 8-2 6h-2v-6l5-5z" fill="#FEFEFE"/>
<path transform="translate(1230,744)" d="m0 0 2 1-13 14h-4v-2l6-3z" fill="#F7F7F7"/>
<path transform="translate(1976,775)" d="m0 0 4 2v2l-5 2-7 7-2-1 8-9z" fill="#CDCDCD"/>
<path transform="translate(1426,704)" d="m0 0 2 3 4 8 4 6h-4l-5-10z" fill="#FEFEFE"/>
<path transform="translate(1919,791)" d="m0 0 4 5 6 8 1 2-5-2-4-5-2-4z" fill="#FEFEFE"/>
<path transform="translate(240,675)" d="m0 0 2 1v14h-1l-2-10h-2l2-4z" fill="#FEFEFE"/>
<path transform="translate(1591,694)" d="m0 0v3l-12 12v-3l10-11z" fill="#9A9A9A"/>
<path transform="translate(997,695)" d="m0 0 2 1-3 4-2 4-4-2v-3z" fill="#939393"/>
<path transform="translate(652,785)" d="m0 0 3 3 1 4 4 1-8 6-2-1 4-5z" fill="#FEFEFE"/>
<path transform="translate(813,752)" d="m0 0 2 1-4 10-3-3 1-4z" fill="#FEFEFE"/>
<path transform="translate(757,751)" d="m0 0 1 2-4 9-3-3 2-5z" fill="#020202"/>
<path transform="translate(1699,750)" d="m0 0 2 1-6 9-2 2-1-3 3-6z" fill="#FEFEFE"/>
<path transform="translate(724,749)" d="m0 0 4 2 4 9v6l-2-4z" fill="#FEFEFE"/>
<path transform="translate(236,854)" d="m0 0 2 1-5 3h-7l-3-3h9z" fill="#FEFEFE"/>
<path transform="translate(102,803)" d="m0 0h1l2 11h-6z" fill="#FEFEFE"/>
<path transform="translate(273,736)" d="m0 0 5 1 4 5-11-3v-2z" fill="#BFBFBF"/>
<path transform="translate(90,738)" d="m0 0h2v3l6-2-5 5h-4z" fill="#FEFEFE"/>
<path transform="translate(1471,718)" d="m0 0 2 1-3 4-8 2 4-5z" fill="#FEFEFE"/>
<path transform="translate(701,712)" d="m0 0h3v6l-7-2z" fill="#FEFEFE"/>
<path transform="translate(604,678)" d="m0 0h3l-2 4h-2l-1 3h-5l5-5z" fill="#F4F4F4"/>
<path transform="translate(146,764)" d="m0 0 2 3 4 8-4-2-3-4z" fill="#FEFEFE"/>
<path transform="translate(648,799)" d="m0 0 2 1-8 6-2-1z" fill="#FEFEFE"/>
<path transform="translate(398,831)" d="m0 0v3l-4 1z" fill="#FEFEFE"/>
<path transform="translate(484,719)" d="m0 0 2 2 1 4-3-1z" fill="#4D4D4D"/>
<path transform="translate(1936,818)" d="m0 0 2 1-3 2z" fill="#FEFEFE"/>
<path transform="translate(1468,817)" d="m0 0 2 1z" fill="#FEFEFE"/>
<path transform="translate(638,806)" d="m0 0 2 1z" fill="#FEFEFE"/>
<path transform="translate(1467,818)" d="m0 0" fill="#FEFEFE"/>
<path transform="translate(1470,816)" d="m0 0" fill="#FEFEFE"/>
</svg>
